<svg width="20" height="20" viewBox="0 0 20 20" fill="none" xmlns="http://www.w3.org/2000/svg">
<rect x="0.917725" y="0.485901" width="18.9331" height="18.9331" rx="4.73328" fill="white"/>
<path d="M10.3841 3.19061C6.65838 3.19061 3.62231 6.22667 3.62231 9.95244C3.62231 13.6782 6.65838 16.7143 10.3841 16.7143C14.1099 16.7143 17.146 13.6782 17.146 9.95244C17.146 6.22667 14.1099 3.19061 10.3841 3.19061ZM13.0889 10.4596H10.8913V12.6572C10.8913 12.9344 10.6614 13.1643 10.3841 13.1643C10.1069 13.1643 9.87701 12.9344 9.87701 12.6572V10.4596H7.67941C7.40218 10.4596 7.17227 10.2297 7.17227 9.95244C7.17227 9.67521 7.40218 9.4453 7.67941 9.4453H9.87701V7.24771C9.87701 6.97047 10.1069 6.74057 10.3841 6.74057C10.6614 6.74057 10.8913 6.97047 10.8913 7.24771V9.4453H13.0889C13.3661 9.4453 13.596 9.67521 13.596 9.95244C13.596 10.2297 13.3661 10.4596 13.0889 10.4596Z" fill="#FD8F32"/>
</svg>
