<svg width="25" height="24" viewBox="0 0 25 24" fill="none" xmlns="http://www.w3.org/2000/svg">
<path d="M19.74 5.74483H19.34L15.96 2.36483C15.828 2.23499 15.6502 2.16223 15.465 2.16223C15.2798 2.16223 15.102 2.23499 14.97 2.36483C14.7 2.63483 14.7 3.07483 14.97 3.35483L17.36 5.74483H7.64L10.03 3.35483C10.3 3.08483 10.3 2.64483 10.03 2.36483C9.89796 2.23499 9.72019 2.16223 9.535 2.16223C9.34981 2.16223 9.17204 2.23499 9.04 2.36483L5.67 5.74483H5.27C4.37 5.74483 2.5 5.74483 2.5 8.30483C2.5 9.27483 2.7 9.91483 3.12 10.3348C3.36 10.5848 3.65 10.7148 3.96 10.7848C4.25 10.8548 4.56 10.8648 4.86 10.8648H20.14C20.45 10.8648 20.74 10.8448 21.02 10.7848C21.86 10.5848 22.5 9.98483 22.5 8.30483C22.5 5.74483 20.63 5.74483 19.74 5.74483ZM19.55 12.1658H5.37C4.75 12.1658 4.28 12.7158 4.38 13.3258L5.22 18.4658C5.5 20.1858 6.25 22.1658 9.58 22.1658H15.19C18.56 22.1658 19.16 20.4758 19.52 18.5858L20.53 13.3558C20.5585 13.2112 20.5546 13.062 20.5186 12.919C20.4825 12.776 20.4152 12.6428 20.3215 12.529C20.2277 12.4152 20.1099 12.3236 19.9765 12.2608C19.8431 12.198 19.6974 12.1656 19.55 12.1658ZM11.11 18.6158C11.1151 18.7102 11.1008 18.8047 11.0682 18.8934C11.0356 18.9821 10.9852 19.0633 10.9202 19.1319C10.8551 19.2005 10.7768 19.2552 10.6899 19.2925C10.6031 19.3299 10.5095 19.3491 10.415 19.3491C10.3205 19.3491 10.2269 19.3299 10.1401 19.2925C10.0532 19.2552 9.97487 19.2005 9.90984 19.1319C9.84481 19.0633 9.79443 18.9821 9.76179 18.8934C9.72915 18.8047 9.71493 18.7102 9.72 18.6158V15.3158C9.72 14.9358 10.03 14.6158 10.42 14.6158C10.6039 14.6185 10.7794 14.6934 10.9085 14.8244C11.0376 14.9554 11.11 15.1319 11.11 15.3158V18.6158ZM15.39 18.6158C15.39 19.0058 15.08 19.3158 14.69 19.3158C14.31 19.3158 13.99 19.0058 13.99 18.6158V15.3158C13.99 14.9358 14.31 14.6158 14.69 14.6158C15.08 14.6158 15.39 14.9358 15.39 15.3158V18.6158Z" fill="#FD8F32"/>
</svg>
