<svg width="26" height="25" viewBox="0 0 26 25" fill="none" xmlns="http://www.w3.org/2000/svg">
<path d="M8.89258 2.05371V5.13428M17.1074 2.05371V5.13428" stroke="#0E121D" stroke-width="0.739336" stroke-miterlimit="10" stroke-linecap="round" stroke-linejoin="round"/>
<path d="M4.27173 9.33398H21.7283" stroke="#FD8F32" stroke-width="0.739336" stroke-miterlimit="10" stroke-linecap="round" stroke-linejoin="round"/>
<path d="M23.2686 19.5103C23.2686 20.2804 23.0529 21.0095 22.673 21.6256C22.311 22.234 21.7968 22.7376 21.181 23.0869C20.5652 23.4362 19.8691 23.6192 19.1611 23.6177C18.124 23.6177 17.1793 23.2377 16.4605 22.5908C16.1422 22.3238 15.8649 21.9952 15.6493 21.6256C15.2584 20.9894 15.0522 20.257 15.0537 19.5103C15.0537 17.2409 16.8918 15.4028 19.1611 15.4028C20.3934 15.4028 21.4921 15.9471 22.2417 16.7994C22.9021 17.5482 23.2671 18.5119 23.2686 19.5103Z" stroke="#0E121D" stroke-width="0.739336" stroke-miterlimit="10" stroke-linecap="round" stroke-linejoin="round"/>
<path d="M17.5593 19.5102L18.5759 20.5268L20.7631 18.5039" stroke="#0E121D" stroke-width="0.739336" stroke-linecap="round" stroke-linejoin="round"/>
<path d="M22.2417 8.72827V16.7994C21.4921 15.9471 20.3934 15.4028 19.1611 15.4028C16.8918 15.4028 15.0537 17.2409 15.0537 19.5103C15.0537 20.2804 15.2694 21.0095 15.6493 21.6256C15.8649 21.9953 16.1422 22.3238 16.4605 22.5908H8.89258C5.29858 22.5908 3.7583 20.5371 3.7583 17.4565V8.72827C3.7583 5.64771 5.29858 3.59399 8.89258 3.59399H17.1074C20.7014 3.59399 22.2417 5.64771 22.2417 8.72827Z" stroke="#0E121D" stroke-width="0.739336" stroke-miterlimit="10" stroke-linecap="round" stroke-linejoin="round"/>
<path d="M12.9949 14.0679H13.0042M9.19556 14.0679H9.20583M9.19556 17.1484H9.2048" stroke="#FD8F32" stroke-width="0.985782" stroke-linecap="round" stroke-linejoin="round"/>
</svg>
