<svg width="25" height="25" viewBox="0 0 25 25" fill="none" xmlns="http://www.w3.org/2000/svg">
<path d="M22.7378 18.8223C22.7378 19.1919 22.6556 19.5719 22.481 19.9415C22.3065 20.3112 22.0806 20.6603 21.7828 20.9889C21.2796 21.5434 20.7251 21.9439 20.0987 22.2006C19.4826 22.4573 18.8152 22.5908 18.0964 22.5908C17.049 22.5908 15.9297 22.3444 14.7488 21.8412C13.5679 21.3381 12.387 20.6603 11.2164 19.808C10.0233 18.9353 8.89748 17.9742 7.84835 16.9329C6.80996 15.8875 5.85224 14.765 4.98342 13.575C4.1414 12.4044 3.46367 11.2338 2.97078 10.0735C2.47789 8.90284 2.23145 7.78357 2.23145 6.71564C2.23145 6.01737 2.35467 5.34992 2.60111 4.7338C2.84756 4.10742 3.23776 3.53238 3.782 3.01896C4.43919 2.37204 5.15798 2.05371 5.91786 2.05371C6.20538 2.05371 6.4929 2.11532 6.74961 2.23855C7.01659 2.36177 7.25277 2.5466 7.4376 2.81358L9.81991 6.1714C10.0047 6.42812 10.1382 6.66429 10.2307 6.8902C10.3231 7.10584 10.3744 7.32148 10.3744 7.51658C10.3744 7.76303 10.3025 8.00947 10.1588 8.24565C10.0253 8.48183 9.83018 8.72827 9.58373 8.97472L8.80332 9.78594C8.69037 9.89889 8.63903 10.0324 8.63903 10.1967C8.63903 10.2788 8.64929 10.3507 8.66983 10.4329C8.70064 10.515 8.73144 10.5766 8.75198 10.6382C8.93681 10.9771 9.25514 11.4186 9.70696 11.9526C10.169 12.4866 10.6619 13.0308 11.1959 13.575C11.7504 14.1193 12.2844 14.6224 12.8286 15.0845C13.3626 15.5363 13.8041 15.8444 14.1532 16.0292C14.2046 16.0498 14.2662 16.0806 14.3381 16.1114C14.4202 16.1422 14.5024 16.1524 14.5948 16.1524C14.7694 16.1524 14.9028 16.0908 15.0158 15.9779L15.7962 15.2077C16.0529 14.951 16.2994 14.7559 16.5355 14.6327C16.7717 14.4889 17.0079 14.4171 17.2646 14.4171C17.4597 14.4171 17.6651 14.4581 17.891 14.5505C18.1169 14.643 18.3531 14.7765 18.6098 14.951L22.0087 17.3641C22.2757 17.549 22.4605 17.7646 22.5735 18.0213C22.6761 18.278 22.7378 18.5347 22.7378 18.8223V18.8223Z" stroke="#0E121D" stroke-width="0.739336" stroke-miterlimit="10"/>
<path d="M19.1746 9.2417C19.1746 8.62559 18.6919 7.68088 17.9731 6.91074C17.316 6.20221 16.4431 5.64771 15.5806 5.64771M22.7686 9.2417C22.7686 5.26777 19.5545 2.05371 15.5806 2.05371" stroke="#FD8F32" stroke-width="0.739336" stroke-linecap="round" stroke-linejoin="round"/>
</svg>
