<svg width="25" height="25" viewBox="0 0 25 25" fill="none" xmlns="http://www.w3.org/2000/svg">
<path d="M22.5542 18.83C22.5542 19.19 22.4742 19.56 22.3042 19.92C22.1342 20.28 21.9142 20.62 21.6242 20.94C21.1342 21.48 20.5942 21.87 19.9842 22.12C19.3842 22.37 18.7342 22.5 18.0342 22.5C17.0142 22.5 15.9242 22.26 14.7742 21.77C13.6242 21.28 12.4742 20.62 11.3342 19.79C10.1723 18.9401 9.07592 18.0041 8.05423 16.99C7.043 15.972 6.11033 14.8789 5.26423 13.72C4.44423 12.58 3.78423 11.44 3.30423 10.31C2.82423 9.17 2.58423 8.08 2.58423 7.04C2.58423 6.36 2.70423 5.71 2.94423 5.11C3.18423 4.5 3.56423 3.94 4.09423 3.44C4.73423 2.81 5.43423 2.5 6.17423 2.5C6.45423 2.5 6.73423 2.56 6.98423 2.68C7.24423 2.8 7.47423 2.98 7.65423 3.24L9.97423 6.51C10.1542 6.76 10.2842 6.99 10.3742 7.21C10.4642 7.42 10.5142 7.63 10.5142 7.82C10.5142 8.06 10.4442 8.3 10.3042 8.53C10.1742 8.76 9.98423 9 9.74423 9.24L8.98423 10.03C8.87423 10.14 8.82423 10.27 8.82423 10.43C8.82423 10.51 8.83423 10.58 8.85423 10.66C8.88423 10.74 8.91423 10.8 8.93423 10.86C9.11423 11.19 9.42423 11.62 9.86423 12.14C10.3142 12.66 10.7942 13.19 11.3142 13.72C11.8542 14.25 12.3742 14.74 12.9042 15.19C13.4242 15.63 13.8542 15.93 14.1942 16.11C14.2442 16.13 14.3042 16.16 14.3742 16.19C14.4542 16.22 14.5342 16.23 14.6242 16.23C14.7942 16.23 14.9242 16.17 15.0342 16.06L15.7942 15.31C16.0442 15.06 16.2842 14.87 16.5142 14.75C16.7442 14.61 16.9742 14.54 17.2242 14.54C17.4142 14.54 17.6142 14.58 17.8342 14.67C18.0542 14.76 18.2842 14.89 18.5342 15.06L21.8442 17.41C22.1042 17.59 22.2842 17.8 22.3942 18.05C22.4942 18.3 22.5542 18.55 22.5542 18.83V18.83Z" stroke="white" stroke-width="1.5" stroke-miterlimit="10"/>
</svg>
