<svg width="25" height="25" viewBox="0 0 25 25" fill="none" xmlns="http://www.w3.org/2000/svg">
<path d="M3.5 21.5H17.5L17.5 16.5C17.5 15.3954 18.3954 14.5 19.5 14.5C20.6046 14.5 21.5 15.3954 21.5 16.5M12.5 21.5V17.4146M7.5 21.5V17.4146M7.1 11.5H12.9C13.4601 11.5 13.7401 11.5 13.954 11.609C14.1422 11.7049 14.2951 11.8578 14.391 12.046C14.5 12.2599 14.5 12.5399 14.5 13.1L14.5 16C14.5 16.8284 13.8284 17.5 13 17.5C12.1716 17.5 11.5 16.8284 11.5 16V15.5C11.5 14.9477 11.0523 14.5 10.5 14.5H9.5C8.94772 14.5 8.5 14.9477 8.5 15.5V16C8.5 16.8284 7.82843 17.5 7 17.5C6.17157 17.5 5.5 16.8284 5.5 16V13.1C5.5 12.5399 5.5 12.2599 5.60899 12.046C5.70487 11.8578 5.85785 11.7049 6.04601 11.609C6.25992 11.5 6.53995 11.5 7.1 11.5ZM10 8.5C10.8968 8.5 11.6558 7.90972 11.9095 7.09649C12.0272 6.71956 11.8831 6.32469 11.6641 5.99615L10 3.5L8.3359 5.99615C8.11688 6.32469 7.97284 6.71956 8.09046 7.09649C8.34423 7.90972 9.10318 8.5 10 8.5Z" stroke="#FD8F32" stroke-opacity="0.8" stroke-width="2" stroke-linecap="round" stroke-linejoin="round"/>
</svg>
