<svg width="24" height="24" viewBox="0 0 24 24" fill="none" xmlns="http://www.w3.org/2000/svg">
<path d="M2.52295 15.5824V6.00244C2.52295 4.67244 3.21659 4.35244 4.06336 5.29244L6.3965 7.88244C6.74783 8.27244 7.32435 8.27244 7.66667 7.88244L10.8916 4.29244C10.975 4.19974 11.074 4.12619 11.1829 4.07601C11.2919 4.02583 11.4087 4 11.5267 4C11.6447 4 11.7615 4.02583 11.8705 4.07601C11.9795 4.12619 12.0785 4.19974 12.1618 4.29244L15.3958 7.88244C15.7471 8.27244 16.3236 8.27244 16.6659 7.88244L18.9991 5.29244C19.8458 4.35244 20.5395 4.67244 20.5395 6.00244V15.5924C20.5395 18.5924 18.7378 20.5924 16.0353 20.5924H7.02708C4.5408 20.5824 2.52295 18.3424 2.52295 15.5824V15.5824Z" stroke="#2B2B2B" stroke-width="1.5" stroke-linecap="round" stroke-linejoin="round"/>
</svg>
