<svg width="24" height="24" viewBox="0 0 24 24" fill="none" xmlns="http://www.w3.org/2000/svg">
<path d="M9.52667 14.975L15.1484 8.975M4.83155 14.635L3.40737 13.115C2.82645 12.495 2.82645 11.475 3.40737 10.855L4.83155 9.335C5.07516 9.075 5.27192 8.565 5.27192 8.205V6.055C5.27192 5.175 5.94654 4.455 6.77106 4.455H8.78553C9.12284 4.455 9.60069 4.245 9.8443 3.985L11.2685 2.465C11.8494 1.845 12.8051 1.845 13.386 2.465L14.8102 3.985C15.0538 4.245 15.5317 4.455 15.869 4.455H17.8834C18.708 4.455 19.3826 5.175 19.3826 6.055V8.205C19.3826 8.565 19.5793 9.075 19.823 9.335L21.2471 10.855C21.8281 11.475 21.8281 12.495 21.2471 13.115L19.823 14.635C19.5793 14.895 19.3826 15.405 19.3826 15.765V17.915C19.3826 18.795 18.708 19.515 17.8834 19.515H15.869C15.5317 19.515 15.0538 19.725 14.8102 19.985L13.386 21.505C12.8051 22.125 11.8494 22.125 11.2685 21.505L9.8443 19.985C9.60069 19.725 9.12284 19.515 8.78553 19.515H6.77106C5.94654 19.515 5.27192 18.795 5.27192 17.915V15.765C5.27192 15.395 5.07516 14.885 4.83155 14.635V14.635Z" stroke="#2B2B2B" stroke-width="1.5" stroke-linecap="round" stroke-linejoin="round"/>
<path d="M14.5908 15H14.5993M9.90601 10H9.9135" stroke="#2B2B2B" stroke-width="2" stroke-linecap="round" stroke-linejoin="round"/>
</svg>
