<svg width="26" height="25" viewBox="0 0 26 25" fill="none" xmlns="http://www.w3.org/2000/svg">
<path d="M3.24487 12.7443V8.05161C3.24487 6.82965 3.99448 5.74118 5.13429 5.3099L13.2875 2.22933C13.5829 2.11801 13.901 2.08004 14.2143 2.11867C14.5276 2.1573 14.8269 2.27139 15.0864 2.45114C15.3459 2.63089 15.5579 2.87093 15.7043 3.15065C15.8506 3.43038 15.9269 3.74144 15.9265 4.05714V7.95919" stroke="#FD8F32" stroke-width="0.739336" stroke-linecap="round" stroke-linejoin="round"/>
<path d="M19.2022 13.9138C18.7709 14.3348 18.5245 14.9406 18.5861 15.5875C18.6785 16.6966 19.6951 17.5078 20.8041 17.5078H22.7551V18.7297C22.7551 20.8553 21.0197 22.5907 18.8942 22.5907H7.10585C4.98026 22.5907 3.24487 20.8553 3.24487 18.7297V11.819C3.24487 9.69339 4.98026 7.95801 7.10585 7.95801H18.8942C21.0197 7.95801 22.7551 9.69339 22.7551 11.819V13.2977H20.6809C20.1058 13.2977 19.5822 13.5236 19.2022 13.9138Z" stroke="#0E121D" stroke-width="0.739336" stroke-linecap="round" stroke-linejoin="round"/>
<path d="M23.8426 14.3452V16.4606C23.8426 17.0253 23.3907 17.4874 22.8157 17.508H20.8031C19.6941 17.508 18.6775 16.6967 18.5851 15.5877C18.5234 14.9408 18.7699 14.335 19.2012 13.914C19.5811 13.5238 20.1048 13.2979 20.6798 13.2979H22.8157C23.3907 13.3184 23.8426 13.7805 23.8426 14.3452V14.3452Z" stroke="#0E121D" stroke-width="0.739336" stroke-linecap="round" stroke-linejoin="round"/>
<path d="M7.86572 12.3223H15.0537" stroke="#FD8F32" stroke-width="0.739336" stroke-linecap="round" stroke-linejoin="round"/>
</svg>
