<svg width="24" height="25" viewBox="0 0 24 25" fill="none" xmlns="http://www.w3.org/2000/svg">
<path d="M9 10.5H9.009M15 10.5H15.009M5 10.5C5 6.63401 8.13401 3.5 12 3.5C15.866 3.5 19 6.63401 19 10.5V21.5L18.1828 20.9552C17.4052 20.4368 17.0165 20.1777 16.605 20.1045C16.2421 20.04 15.8685 20.077 15.5253 20.2114C15.1362 20.3638 14.8058 20.6942 14.145 21.355V21.355C14.0649 21.4351 13.9351 21.435 13.8549 21.355C13.4039 20.9052 13.1548 20.6686 12.888 20.5364C12.3285 20.2591 11.6715 20.2591 11.112 20.5364C10.8452 20.6686 10.5961 20.9052 10.1451 21.355C10.0649 21.435 9.93508 21.4351 9.855 21.355V21.355C9.19423 20.6942 8.86384 20.3638 8.47469 20.2114C8.13152 20.077 7.75788 20.04 7.39501 20.1045C6.98352 20.1777 6.59475 20.4368 5.81722 20.9552L5 21.5V10.5Z" stroke="#FD8F32" stroke-opacity="0.8" stroke-width="2" stroke-linecap="round" stroke-linejoin="round"/>
</svg>
