<svg width="25" height="25" viewBox="0 0 25 25" fill="none" xmlns="http://www.w3.org/2000/svg">
<path d="M15.2245 11.7755L16.5 13L10.5129 18.3219C8.55054 20.0662 6.10528 21.1743 3.5 21.5L4.29443 20.0435C5.1198 18.5304 5.53249 17.7738 6.00651 17.0583C6.42771 16.4225 6.88492 15.8114 7.37592 15.2278C7.92848 14.5711 8.5378 13.9616 9.75644 12.7426L12.5 9.99828M12 9.49793L17.9497 3.54995C18.5698 2.93002 19.5281 2.80176 20.2894 3.2368C21.4027 3.87297 21.6064 5.39362 20.6997 6.30031L20.3415 6.65853C20.1228 6.87716 19.8263 6.99999 19.5171 6.99999H18.5L16.5 8.99999V9.1745C16.5 9.66368 16.5 9.90827 16.4447 10.1384C16.3957 10.3425 16.3149 10.5376 16.2053 10.7166C16.0816 10.9184 15.9086 11.0913 15.5627 11.4372L14.7501 12.2499L12 9.49793Z" stroke="#FD8F32" stroke-opacity="0.8" stroke-width="2" stroke-linecap="round" stroke-linejoin="round"/>
</svg>
