<svg width="25" height="24" viewBox="0 0 25 24" fill="none" xmlns="http://www.w3.org/2000/svg">
<path d="M12.5001 13.4299C13.3276 13.4301 14.1212 13.1015 14.7064 12.5165C15.2916 11.9314 15.6205 11.1379 15.6206 10.3104C15.6207 9.48297 15.2921 8.68933 14.7071 8.10412C14.1221 7.51891 13.3286 7.19007 12.5011 7.18994C11.6736 7.18994 10.88 7.51865 10.2949 8.10377C9.70982 8.68888 9.3811 9.48247 9.3811 10.3099C9.3811 11.1374 9.70982 11.931 10.2949 12.5161C10.88 13.1012 11.6736 13.4299 12.5011 13.4299H12.5001Z" stroke="#FD8F32" stroke-width="1.5"/>
<path d="M4.11995 8.49C6.08995 -0.169998 18.92 -0.159997 20.88 8.5C22.03 13.58 18.87 17.88 16.1 20.54C15.132 21.4735 13.8397 21.9952 12.495 21.9952C11.1502 21.9952 9.85788 21.4735 8.88995 20.54C6.12995 17.88 2.96995 13.57 4.11995 8.49V8.49Z" stroke="white" stroke-width="1.5"/>
</svg>
