<svg width="28" height="28" viewBox="0 0 28 28" fill="none" xmlns="http://www.w3.org/2000/svg">
<path d="M13.9999 26.6964C17.6191 26.4515 20.1348 23.5309 22.4622 20.7485C24.8931 17.8425 27.7945 14.7333 27.1264 11.004C26.4345 7.14187 22.8118 4.74476 19.2865 3.02233C15.7289 1.28411 11.5285 -0.240288 8.0743 1.69532C4.75575 3.55493 4.59015 7.95161 3.83615 11.6802C3.11875 15.2278 1.93948 19.0026 3.96827 22C6.14565 25.2169 10.1242 26.9587 13.9999 26.6964Z" fill="#0E121D"/>
<path fill-rule="evenodd" clip-rule="evenodd" d="M5.49781 5.89876C4.95186 5.26182 5.40441 4.27777 6.24336 4.27777H18.375C20.7913 4.27777 22.75 6.23653 22.75 8.65277C22.75 11.069 20.7913 13.0278 18.375 13.0278H6.24336C5.40435 13.0278 4.9519 12.0437 5.49781 11.4068L6.23142 10.5509C7.16764 9.45865 7.16764 7.84689 6.23142 6.75463L5.49781 5.89876ZM5.25 18.375C5.25 15.9587 7.20876 14 9.625 14H21.7567C22.5956 14 23.0481 14.9841 22.5022 15.621L21.7685 16.4768C20.8324 17.5691 20.8324 19.1809 21.7685 20.2732L22.5022 21.129C23.0481 21.7659 22.5956 22.75 21.7567 22.75H9.625C7.20876 22.75 5.25 20.7913 5.25 18.375Z" fill="#FD8F32"/>
</svg>
