<svg width="24" height="24" viewBox="0 0 24 24" fill="none" xmlns="http://www.w3.org/2000/svg">
<path d="M7.99991 12H6.99991M16.9999 12H15.9999M11.9999 8.5L15.5838 7.42483C16.0853 7.27439 16.336 7.19917 16.5908 7.16825C16.8611 7.13544 17.1346 7.13958 17.4038 7.18057C17.6575 7.21919 17.9058 7.30197 18.4025 7.46753C19.9303 7.97678 20.6941 8.23141 21.1846 8.70628C21.7022 9.20743 22.0222 9.87812 22.086 10.5958C22.1465 11.2757 21.8638 12.0297 21.2983 13.5376L20.7786 14.9236C20.4978 15.6722 20.3575 16.0465 20.1144 16.3223C19.8996 16.566 19.6288 16.7537 19.3252 16.8692C18.9816 17 18.5818 17 17.7823 17H16.7553C16.4736 17 16.3327 17 16.1947 16.9807C16.0722 16.9635 15.9515 16.935 15.8343 16.8956C15.7022 16.8512 15.5762 16.7882 15.3242 16.6622L14.8621 16.4311C13.8126 15.9064 13.2879 15.644 12.7375 15.5407C12.25 15.4493 11.7498 15.4493 11.2623 15.5407C10.7119 15.644 10.1872 15.9064 9.13774 16.4311L8.67557 16.6622C8.42358 16.7882 8.29759 16.8512 8.16554 16.8956C8.04827 16.935 7.9276 16.9635 7.80506 16.9807C7.66709 17 7.52622 17 7.24449 17H6.21751C5.41799 17 5.01824 17 4.67461 16.8692C4.37105 16.7537 4.10018 16.566 3.88544 16.3223C3.64235 16.0465 3.50198 15.6722 3.22125 14.9236L2.70149 13.5376C2.13604 12.0297 1.85331 11.2757 1.9138 10.5958C1.97764 9.87812 2.29761 9.20743 2.81522 8.70628C3.30568 8.23141 4.06956 7.97678 5.59733 7.46753C6.09401 7.30197 6.34234 7.21919 6.59605 7.18057C6.86523 7.13958 7.13874 7.13544 7.40904 7.16825C7.6638 7.19917 7.91454 7.27439 8.416 7.42483L11.9999 8.5Z" stroke="#FD8F32" stroke-opacity="0.8" stroke-width="2" stroke-linecap="round" stroke-linejoin="round"/>
</svg>
