<svg width="36" height="36" viewBox="0 0 36 36" fill="none" xmlns="http://www.w3.org/2000/svg">
<path d="M18.24 16.305C18.09 16.29 17.91 16.29 17.745 16.305C14.175 16.185 11.34 13.26 11.34 9.66C11.34 5.985 14.31 3 18 3C21.675 3 24.66 5.985 24.66 9.66C24.645 13.26 21.81 16.185 18.24 16.305Z" stroke="#FD8F32" stroke-width="1.5" stroke-linecap="round" stroke-linejoin="round"/>
<path d="M10.74 21.84C7.11002 24.27 7.11002 28.23 10.74 30.645C14.865 33.405 21.63 33.405 25.755 30.645C29.385 28.215 29.385 24.255 25.755 21.84C21.645 19.095 14.88 19.095 10.74 21.84Z" stroke="#FD8F32" stroke-width="1.5" stroke-linecap="round" stroke-linejoin="round"/>
</svg>
