<svg width="25" height="25" viewBox="0 0 25 25" fill="none" xmlns="http://www.w3.org/2000/svg">
<path d="M2.23145 2.05371H4.01817C5.12718 2.05371 6.00001 3.00869 5.90759 4.10742L5.0553 14.3349C5.02202 14.7311 5.07141 15.1299 5.20033 15.5061C5.32925 15.8822 5.53489 16.2275 5.80423 16.52C6.07356 16.8125 6.40072 17.0459 6.76497 17.2053C7.12921 17.3648 7.52261 17.4468 7.92023 17.4463H18.8562C20.3349 17.4463 21.6288 16.2346 21.7417 14.7662L22.2962 7.06477C22.4194 5.36019 21.1256 3.97393 19.4107 3.97393H6.15404" stroke="#0E121D" stroke-width="0.739336" stroke-miterlimit="10" stroke-linecap="round" stroke-linejoin="round"/>
<path d="M9.41943 8.21484H21.7417M16.8641 22.5908C17.2046 22.5908 17.531 22.4556 17.7718 22.2149C18.0125 21.9742 18.1477 21.6477 18.1477 21.3073C18.1477 20.9668 18.0125 20.6403 17.7718 20.3996C17.531 20.1589 17.2046 20.0237 16.8641 20.0237C16.5237 20.0237 16.1972 20.1589 15.9565 20.3996C15.7158 20.6403 15.5806 20.9668 15.5806 21.3073C15.5806 21.6477 15.7158 21.9742 15.9565 22.2149C16.1972 22.4556 16.5237 22.5908 16.8641 22.5908ZM8.64929 22.5908C8.98972 22.5908 9.3162 22.4556 9.55691 22.2149C9.79763 21.9742 9.93286 21.6477 9.93286 21.3073C9.93286 20.9668 9.79763 20.6403 9.55691 20.3996C9.3162 20.1589 8.98972 20.0237 8.64929 20.0237C8.30887 20.0237 7.98239 20.1589 7.74167 20.3996C7.50096 20.6403 7.36572 20.9668 7.36572 21.3073C7.36572 21.6477 7.50096 21.9742 7.74167 22.2149C7.98239 22.4556 8.30887 22.5908 8.64929 22.5908V22.5908Z" stroke="#FD8F32" stroke-width="0.739336" stroke-miterlimit="10" stroke-linecap="round" stroke-linejoin="round"/>
</svg>
