<svg width="26" height="25" viewBox="0 0 26 25" fill="none" xmlns="http://www.w3.org/2000/svg">
<path d="M13 14.376H14.0268C15.1564 14.376 16.0806 13.4518 16.0806 12.3223V2.05371H6.83885C5.29857 2.05371 3.95339 2.906 3.25513 4.15877" stroke="#FD8F32" stroke-width="0.739336" stroke-linecap="round" stroke-linejoin="round"/>
<path d="M2.73145 17.4565C2.73145 19.1611 4.10743 20.5371 5.81201 20.5371H6.83887C6.83887 19.4076 7.76304 18.4834 8.89258 18.4834C10.0221 18.4834 10.9463 19.4076 10.9463 20.5371H15.0537C15.0537 19.4076 15.9779 18.4834 17.1074 18.4834C18.237 18.4834 19.1611 19.4076 19.1611 20.5371H20.188C21.8926 20.5371 23.2686 19.1611 23.2686 17.4565V14.376H20.188C19.6232 14.376 19.1611 13.9139 19.1611 13.3491V10.2686C19.1611 9.70379 19.6232 9.2417 20.188 9.2417H21.5126L19.7567 6.1714C19.5758 5.85721 19.3155 5.59604 19.002 5.41403C18.6884 5.23202 18.3325 5.13555 17.97 5.13428H16.0806V12.3223C16.0806 13.4518 15.1564 14.376 14.0269 14.376H13" stroke="#0E121D" stroke-width="0.739336" stroke-linecap="round" stroke-linejoin="round"/>
<path d="M2.73145 8.21484H8.89258M2.73145 11.2954H6.83887M2.73145 14.376H4.78516M8.89258 22.5908C9.43726 22.5908 9.95963 22.3745 10.3448 21.9893C10.7299 21.6042 10.9463 21.0818 10.9463 20.5371C10.9463 19.9924 10.7299 19.4701 10.3448 19.0849C9.95963 18.6998 9.43726 18.4834 8.89258 18.4834C8.3479 18.4834 7.82553 18.6998 7.44039 19.0849C7.05524 19.4701 6.83887 19.9924 6.83887 20.5371C6.83887 21.0818 7.05524 21.6042 7.44039 21.9893C7.82553 22.3745 8.3479 22.5908 8.89258 22.5908V22.5908ZM17.1074 22.5908C17.6521 22.5908 18.1745 22.3745 18.5596 21.9893C18.9448 21.6042 19.1611 21.0818 19.1611 20.5371C19.1611 19.9924 18.9448 19.4701 18.5596 19.0849C18.1745 18.6998 17.6521 18.4834 17.1074 18.4834C16.5627 18.4834 16.0404 18.6998 15.6552 19.0849C15.2701 19.4701 15.0537 19.9924 15.0537 20.5371C15.0537 21.0818 15.2701 21.6042 15.6552 21.9893C16.0404 22.3745 16.5627 22.5908 17.1074 22.5908ZM23.2686 12.3223V14.376H20.188C19.6232 14.376 19.1611 13.9139 19.1611 13.3491V10.2686C19.1611 9.70378 19.6232 9.2417 20.188 9.2417H21.5126L23.2686 12.3223Z" stroke="#0E121D" stroke-width="0.739336" stroke-linecap="round" stroke-linejoin="round"/>
</svg>
